<svg xmlns="http://www.w3.org/2000/svg" width="1000" height="560" viewBox="0 0 1000 560" role="img" aria-labelledby="title desc">
<title id="title">Tamasrazim Motion 13 — GRID DEPTH</title>
<desc id="desc">Looping monochrome vector animation: grid depth, made for the Tamasrazim motion library.</desc>
<defs>
<linearGradient id="bg" x1="0" y1="0" x2="1" y2="1"><stop stop-color="#050505"/><stop offset=".55" stop-color="#0a0b0f"/><stop offset="1" stop-color="#020202"/></linearGradient>
<radialGradient id="glow"><stop stop-color="#dce5ff" stop-opacity=".2"/><stop offset="1" stop-color="#dce5ff" stop-opacity="0"/></radialGradient>
<linearGradient id="beam" x1="0" y1="0" x2="0" y2="1"><stop stop-color="#f3f3ef" stop-opacity="0"/><stop offset=".5" stop-color="#f3f3ef" stop-opacity=".45"/><stop offset="1" stop-color="#f3f3ef" stop-opacity="0"/></linearGradient>
<pattern id="grid" width="36" height="36" patternUnits="userSpaceOnUse"><path d="M36 0H0V36" fill="none" stroke="#f3f3ef" stroke-opacity=".07"/></pattern>
<clipPath id="clip"><rect x="12" y="12" width="976" height="536" rx="15"/></clipPath>
<filter id="glowFilter" x="-100%" y="-100%" width="300%" height="300%"><feGaussianBlur stdDeviation="3" result="b"/><feMerge><feMergeNode in="b"/><feMergeNode in="SourceGraphic"/></feMerge></filter>
<style><![CDATA[
.hair{fill:none;stroke:#f3f3ef;stroke-opacity:.17;stroke-width:1}
.wire{fill:none;stroke:#e9edf9;stroke-opacity:.44;stroke-width:1.1}
.dim{fill:none;stroke:#f3f3ef;stroke-opacity:.105;stroke-width:1}
.dash{fill:none;stroke:#e9edf9;stroke-opacity:.48;stroke-width:1.2;stroke-dasharray:15 16;animation:dash 6s linear infinite}
.particle{fill:#f3f3ef;transform-box:fill-box;transform-origin:center;animation:breathe var(--dur,2.8s) ease-in-out var(--delay,0s) infinite}
.flicker{animation:flicker var(--dur,2.2s) ease-in-out var(--delay,0s) infinite}
.drift{animation:drift var(--dur,4.6s) ease-in-out var(--delay,0s) infinite}
.spin{transform-origin:500px 280px;animation:spin var(--dur,28s) linear infinite}
.reverse{transform-origin:500px 280px;animation:reverse var(--dur,36s) linear infinite}
.sweep{animation:sweep 6s cubic-bezier(.5,0,.5,1) infinite;transform-box:view-box}
.ripple{fill:none;stroke:#f3f3ef;stroke-opacity:.6;stroke-width:1.1;transform-box:fill-box;transform-origin:center;animation:ripple 4s ease-out var(--delay,0s) infinite}
.typeglitch{animation:typeglitch 4.8s steps(1,end) infinite}
.hud{font-family:'JetBrains Mono',ui-monospace,monospace;fill:#f3f3ef}
@keyframes breathe{0%,100%{opacity:.18;transform:scale(.68)}50%{opacity:1;transform:scale(1.4)}}
@keyframes flicker{0%,100%{opacity:.13}32%{opacity:.78}52%{opacity:.27}76%{opacity:1}}
@keyframes drift{0%,100%{transform:translate(0,0)}50%{transform:translate(4px,-8px)}}
@keyframes spin{to{transform:rotate(360deg)}} @keyframes reverse{to{transform:rotate(-360deg)}}
@keyframes dash{to{stroke-dashoffset:-260}}
@keyframes sweep{0%{transform:translateY(-580px);opacity:0}12%{opacity:.7}90%{opacity:.25}100%{transform:translateY(580px);opacity:0}}
@keyframes ripple{0%{transform:scale(.18);opacity:.84}100%{transform:scale(3.1);opacity:0}}
@keyframes typeglitch{0%,91%,100%{transform:translate(0,0)}92%{transform:translate(2px,0)}94%{transform:translate(-3px,1px)}96%{transform:translate(0,0)}}
@media(prefers-reduced-motion:reduce){*,*::before,*::after{animation:none!important;transition:none!important}}
]]></style>
</defs>
<rect width="1000" height="560" fill="#050505"/>
<g clip-path="url(#clip)">
<rect x="12" y="12" width="976" height="536" rx="15" fill="url(#bg)"/>
<rect x="12" y="12" width="976" height="536" rx="15" fill="url(#grid)"/>
<ellipse cx="500" cy="260" rx="430" ry="300" fill="url(#glow)"/>
<path d="M20 280H980 M500 20V540" class="dim"/>
<g class="motif">
<path d="M500 205L18 538" class="wire"/>
<path d="M500 205L48 538" class="dim"/>
<path d="M500 205L78 538" class="dim"/>
<path d="M500 205L108 538" class="wire"/>
<path d="M500 205L138 538" class="dim"/>
<path d="M500 205L168 538" class="dim"/>
<path d="M500 205L198 538" class="wire"/>
<path d="M500 205L228 538" class="dim"/>
<path d="M500 205L258 538" class="dim"/>
<path d="M500 205L288 538" class="wire"/>
<path d="M500 205L318 538" class="dim"/>
<path d="M500 205L348 538" class="dim"/>
<path d="M500 205L378 538" class="wire"/>
<path d="M500 205L408 538" class="dim"/>
<path d="M500 205L438 538" class="dim"/>
<path d="M500 205L468 538" class="wire"/>
<path d="M500 205L498 538" class="dim"/>
<path d="M500 205L528 538" class="dim"/>
<path d="M500 205L558 538" class="wire"/>
<path d="M500 205L588 538" class="dim"/>
<path d="M500 205L618 538" class="dim"/>
<path d="M500 205L648 538" class="wire"/>
<path d="M500 205L678 538" class="dim"/>
<path d="M500 205L708 538" class="dim"/>
<path d="M500 205L738 538" class="wire"/>
<path d="M500 205L768 538" class="dim"/>
<path d="M500 205L798 538" class="dim"/>
<path d="M500 205L828 538" class="wire"/>
<path d="M500 205L858 538" class="dim"/>
<path d="M500 205L888 538" class="dim"/>
<path d="M500 205L918 538" class="wire"/>
<path d="M500 205L948 538" class="dim"/>
<path d="M500 205L978 538" class="dim"/>
<path d="M18 208.0H982" class="dash" style="animation-delay:0s"/>
<path d="M18 208.6H982" class="dim" style="animation-delay:-0.16s"/>
<path d="M18 210.4H982" class="dim" style="animation-delay:-0.32s"/>
<path d="M18 213.3H982" class="dim" style="animation-delay:-0.48s"/>
<path d="M18 217.4H982" class="dash" style="animation-delay:-0.64s"/>
<path d="M18 222.8H982" class="dim" style="animation-delay:-0.8s"/>
<path d="M18 229.2H982" class="dim" style="animation-delay:-0.96s"/>
<path d="M18 236.9H982" class="dim" style="animation-delay:-1.12s"/>
<path d="M18 245.8H982" class="dash" style="animation-delay:-1.28s"/>
<path d="M18 255.8H982" class="dim" style="animation-delay:-1.44s"/>
<path d="M18 267.0H982" class="dim" style="animation-delay:-1.6s"/>
<path d="M18 279.4H982" class="dim" style="animation-delay:-1.76s"/>
<path d="M18 293.0H982" class="dash" style="animation-delay:-1.92s"/>
<path d="M18 307.7H982" class="dim" style="animation-delay:-2.08s"/>
<path d="M18 323.6H982" class="dim" style="animation-delay:-2.24s"/>
<path d="M18 340.8H982" class="dim" style="animation-delay:-2.4s"/>
<path d="M18 359.0H982" class="dash" style="animation-delay:-2.56s"/>
<path d="M18 378.5H982" class="dim" style="animation-delay:-2.72s"/>
<path d="M18 399.2H982" class="dim" style="animation-delay:-2.88s"/>
<path d="M18 421.0H982" class="dim" style="animation-delay:-3.04s"/>
<path d="M18 444.0H982" class="dash" style="animation-delay:-3.2s"/>
<path d="M18 468.2H982" class="dim" style="animation-delay:-3.36s"/>
<path d="M18 493.6H982" class="dim" style="animation-delay:-3.52s"/>
<path d="M18 520.1H982" class="dim" style="animation-delay:-3.68s"/>
<circle cx="500" cy="205" r="7" fill="#f3f3ef" filter="url(#glowFilter)"/>
<circle cx="500" cy="205" r="36" class="ripple"/>
</g>
<g class="particle-layer">
<circle class="flicker" cx="470.0" cy="431.3" r="1.18" opacity="0.55" style="--delay:-0.11s;--dur:2.64s"/>
<circle class="flicker" cx="746.0" cy="388.5" r="1.84" opacity="0.49" style="--delay:-2.00s;--dur:1.65s"/>
<circle class="drift" cx="403.3" cy="485.1" r="2.68" opacity="0.17" style="--delay:-1.12s;--dur:3.24s"/>
<circle class="flicker" cx="782.6" cy="347.2" r="2.69" opacity="0.43" style="--delay:-1.11s;--dur:2.49s"/>
<circle class="flicker" cx="832.8" cy="406.6" r="2.40" opacity="0.42" style="--delay:-2.49s;--dur:2.48s"/>
<circle class="flicker" cx="297.1" cy="305.0" r="0.82" opacity="0.32" style="--delay:-4.26s;--dur:3.66s"/>
<circle class="flicker" cx="48.9" cy="427.6" r="2.11" opacity="0.27" style="--delay:-4.27s;--dur:5.15s"/>
<circle class="particle" cx="448.0" cy="306.1" r="2.06" opacity="0.24" style="--delay:-3.67s;--dur:5.16s"/>
<circle class="flicker" cx="260.9" cy="254.0" r="1.58" opacity="0.15" style="--delay:-0.36s;--dur:4.65s"/>
<circle class="drift" cx="258.5" cy="281.6" r="1.31" opacity="0.31" style="--delay:-3.06s;--dur:1.86s"/>
<circle class="flicker" cx="551.6" cy="364.7" r="1.21" opacity="0.42" style="--delay:-2.95s;--dur:4.14s"/>
<circle class="flicker" cx="924.0" cy="252.9" r="0.74" opacity="0.37" style="--delay:-1.96s;--dur:4.04s"/>
<circle class="flicker" cx="927.1" cy="389.3" r="1.51" opacity="0.46" style="--delay:-1.39s;--dur:3.20s"/>
<circle class="flicker" cx="799.0" cy="485.4" r="2.07" opacity="0.26" style="--delay:-1.16s;--dur:2.72s"/>
<circle class="flicker" cx="101.5" cy="524.6" r="1.83" opacity="0.48" style="--delay:-0.19s;--dur:2.53s"/>
<circle class="flicker" cx="671.3" cy="436.6" r="2.26" opacity="0.39" style="--delay:-1.79s;--dur:1.71s"/>
<circle class="drift" cx="648.1" cy="525.5" r="1.31" opacity="0.47" style="--delay:-2.98s;--dur:3.06s"/>
<circle class="flicker" cx="438.1" cy="326.0" r="2.38" opacity="0.53" style="--delay:-2.47s;--dur:4.06s"/>
<circle class="particle" cx="317.9" cy="515.2" r="1.93" opacity="0.31" style="--delay:-3.37s;--dur:3.63s"/>
<circle class="flicker" cx="270.3" cy="448.5" r="2.33" opacity="0.40" style="--delay:-1.37s;--dur:4.40s"/>
<circle class="flicker" cx="64.1" cy="402.4" r="2.59" opacity="0.31" style="--delay:-3.63s;--dur:2.71s"/>
<circle class="flicker" cx="403.5" cy="517.8" r="1.51" opacity="0.51" style="--delay:-2.67s;--dur:4.61s"/>
<circle class="flicker" cx="653.6" cy="375.7" r="1.98" opacity="0.50" style="--delay:-3.52s;--dur:3.81s"/>
<circle class="drift" cx="545.9" cy="479.4" r="1.53" opacity="0.53" style="--delay:-4.05s;--dur:4.52s"/>
<circle class="flicker" cx="737.5" cy="469.6" r="2.48" opacity="0.55" style="--delay:-1.81s;--dur:4.97s"/>
<circle class="flicker" cx="314.7" cy="465.2" r="2.45" opacity="0.42" style="--delay:-2.78s;--dur:3.08s"/>
<circle class="flicker" cx="790.4" cy="442.2" r="2.59" opacity="0.36" style="--delay:-1.85s;--dur:3.90s"/>
<circle class="flicker" cx="589.3" cy="427.5" r="2.69" opacity="0.15" style="--delay:-3.84s;--dur:3.11s"/>
<circle class="flicker" cx="767.7" cy="510.8" r="2.08" opacity="0.35" style="--delay:-3.77s;--dur:4.79s"/>
<circle class="particle" cx="880.7" cy="523.7" r="1.80" opacity="0.29" style="--delay:-4.06s;--dur:4.74s"/>
<circle class="drift" cx="407.1" cy="344.5" r="0.74" opacity="0.52" style="--delay:-4.26s;--dur:4.98s"/>
<circle class="flicker" cx="612.5" cy="499.1" r="1.74" opacity="0.34" style="--delay:-3.00s;--dur:5.15s"/>
<circle class="flicker" cx="415.5" cy="223.5" r="1.42" opacity="0.49" style="--delay:-2.40s;--dur:4.08s"/>
<circle class="flicker" cx="835.3" cy="315.6" r="2.55" opacity="0.22" style="--delay:-0.18s;--dur:3.58s"/>
<circle class="flicker" cx="821.5" cy="352.7" r="1.68" opacity="0.20" style="--delay:-2.27s;--dur:1.70s"/>
<circle class="flicker" cx="882.0" cy="467.4" r="2.43" opacity="0.29" style="--delay:-1.61s;--dur:3.47s"/>
<circle class="flicker" cx="924.9" cy="444.1" r="1.08" opacity="0.14" style="--delay:-3.99s;--dur:2.91s"/>
<circle class="drift" cx="658.1" cy="339.3" r="1.01" opacity="0.35" style="--delay:-2.16s;--dur:4.92s"/>
<circle class="flicker" cx="531.8" cy="223.1" r="1.41" opacity="0.31" style="--delay:-3.73s;--dur:3.38s"/>
<circle class="flicker" cx="63.4" cy="384.3" r="0.72" opacity="0.25" style="--delay:-0.90s;--dur:4.70s"/>
<circle class="particle" cx="505.1" cy="228.8" r="1.75" opacity="0.40" style="--delay:-0.76s;--dur:2.31s"/>
<circle class="flicker" cx="365.4" cy="418.5" r="1.53" opacity="0.34" style="--delay:-1.60s;--dur:2.19s"/>
<circle class="flicker" cx="866.5" cy="349.0" r="1.22" opacity="0.57" style="--delay:-0.14s;--dur:2.90s"/>
<circle class="flicker" cx="481.3" cy="494.3" r="1.99" opacity="0.27" style="--delay:-2.29s;--dur:1.67s"/>
<circle class="drift" cx="812.1" cy="336.4" r="1.67" opacity="0.32" style="--delay:-1.84s;--dur:3.49s"/>
<circle class="flicker" cx="214.1" cy="515.8" r="2.78" opacity="0.27" style="--delay:-1.18s;--dur:3.10s"/>
<circle class="flicker" cx="184.8" cy="508.3" r="1.34" opacity="0.40" style="--delay:-2.80s;--dur:2.55s"/>
<circle class="flicker" cx="362.5" cy="461.1" r="1.60" opacity="0.52" style="--delay:-2.15s;--dur:3.92s"/>
<circle class="flicker" cx="55.0" cy="302.8" r="1.35" opacity="0.37" style="--delay:-4.45s;--dur:3.36s"/>
<circle class="flicker" cx="508.9" cy="357.5" r="1.96" opacity="0.42" style="--delay:-1.45s;--dur:5.31s"/>
<circle class="flicker" cx="412.8" cy="324.0" r="2.57" opacity="0.30" style="--delay:-1.98s;--dur:2.78s"/>
<circle class="particle" cx="275.0" cy="437.0" r="1.83" opacity="0.28" style="--delay:-1.48s;--dur:3.22s"/>
<circle class="flicker" cx="616.8" cy="345.3" r="2.08" opacity="0.31" style="--delay:-2.74s;--dur:2.80s"/>
<circle class="flicker" cx="477.9" cy="306.7" r="1.47" opacity="0.31" style="--delay:-4.02s;--dur:3.86s"/>
<circle class="flicker" cx="964.9" cy="475.3" r="1.37" opacity="0.45" style="--delay:-2.47s;--dur:4.95s"/>
<circle class="flicker" cx="331.5" cy="455.6" r="1.53" opacity="0.23" style="--delay:-3.00s;--dur:3.63s"/>
<circle class="flicker" cx="443.0" cy="501.7" r="1.53" opacity="0.54" style="--delay:-1.72s;--dur:4.08s"/>
<circle class="flicker" cx="336.5" cy="408.0" r="2.23" opacity="0.22" style="--delay:-1.50s;--dur:3.00s"/>
<circle class="drift" cx="603.5" cy="388.7" r="1.15" opacity="0.43" style="--delay:-1.85s;--dur:2.81s"/>
<circle class="flicker" cx="873.9" cy="306.5" r="2.66" opacity="0.37" style="--delay:-1.84s;--dur:3.11s"/>
<circle class="flicker" cx="545.5" cy="460.2" r="1.07" opacity="0.51" style="--delay:-3.31s;--dur:3.10s"/>
<circle class="flicker" cx="657.9" cy="324.7" r="2.12" opacity="0.31" style="--delay:-1.04s;--dur:4.34s"/>
<circle class="particle" cx="387.9" cy="229.8" r="1.82" opacity="0.39" style="--delay:-4.20s;--dur:2.43s"/>
<circle class="flicker" cx="341.2" cy="327.7" r="2.49" opacity="0.25" style="--delay:-0.88s;--dur:5.10s"/>
<circle class="flicker" cx="415.3" cy="405.3" r="1.53" opacity="0.42" style="--delay:-3.07s;--dur:2.30s"/>
<circle class="drift" cx="413.7" cy="437.1" r="1.94" opacity="0.25" style="--delay:-2.45s;--dur:4.14s"/>
<circle class="flicker" cx="723.4" cy="253.0" r="1.24" opacity="0.18" style="--delay:-3.85s;--dur:3.62s"/>
<circle class="flicker" cx="244.4" cy="304.0" r="2.09" opacity="0.22" style="--delay:-1.85s;--dur:4.80s"/>
<circle class="flicker" cx="911.8" cy="350.7" r="1.25" opacity="0.34" style="--delay:-2.71s;--dur:3.11s"/>
<circle class="flicker" cx="211.8" cy="242.0" r="0.89" opacity="0.18" style="--delay:-1.23s;--dur:3.84s"/>
<circle class="flicker" cx="672.5" cy="350.9" r="1.08" opacity="0.37" style="--delay:-3.01s;--dur:2.59s"/>
<circle class="flicker" cx="541.5" cy="293.0" r="1.65" opacity="0.51" style="--delay:-1.25s;--dur:4.09s"/>
<circle class="drift" cx="837.3" cy="438.4" r="0.88" opacity="0.56" style="--delay:-0.49s;--dur:2.61s"/>
<circle class="particle" cx="414.8" cy="366.0" r="1.82" opacity="0.44" style="--delay:-0.89s;--dur:1.97s"/>
<circle class="flicker" cx="597.0" cy="420.4" r="2.49" opacity="0.56" style="--delay:-2.10s;--dur:2.30s"/>
<circle class="flicker" cx="285.4" cy="510.9" r="2.76" opacity="0.28" style="--delay:-0.48s;--dur:3.32s"/>
<circle class="flicker" cx="661.1" cy="478.3" r="2.15" opacity="0.55" style="--delay:-2.46s;--dur:1.95s"/>
<circle class="flicker" cx="288.9" cy="222.0" r="2.77" opacity="0.45" style="--delay:-3.85s;--dur:3.63s"/>
<circle class="flicker" cx="129.1" cy="320.9" r="1.39" opacity="0.39" style="--delay:-4.42s;--dur:4.80s"/>
<circle class="drift" cx="213.6" cy="320.7" r="2.70" opacity="0.55" style="--delay:-3.14s;--dur:5.28s"/>
<circle class="flicker" cx="468.3" cy="428.3" r="2.23" opacity="0.35" style="--delay:-4.43s;--dur:4.20s"/>
<circle class="flicker" cx="126.0" cy="430.7" r="1.91" opacity="0.50" style="--delay:-1.54s;--dur:5.29s"/>
<circle class="flicker" cx="543.8" cy="423.6" r="2.72" opacity="0.48" style="--delay:-4.29s;--dur:2.85s"/>
<circle class="flicker" cx="838.4" cy="236.2" r="1.73" opacity="0.48" style="--delay:-3.32s;--dur:5.17s"/>
<circle class="particle" cx="958.3" cy="438.6" r="2.45" opacity="0.45" style="--delay:-2.65s;--dur:4.35s"/>
<circle class="flicker" cx="688.7" cy="391.7" r="2.38" opacity="0.42" style="--delay:-4.32s;--dur:3.79s"/>
<circle class="drift" cx="961.2" cy="274.9" r="2.35" opacity="0.54" style="--delay:-2.26s;--dur:5.20s"/>
<circle class="flicker" cx="349.9" cy="514.9" r="2.19" opacity="0.56" style="--delay:-3.77s;--dur:3.46s"/>
<circle class="flicker" cx="929.8" cy="380.1" r="2.09" opacity="0.31" style="--delay:-3.62s;--dur:4.73s"/>
<circle class="flicker" cx="725.3" cy="294.8" r="2.67" opacity="0.53" style="--delay:-3.56s;--dur:4.61s"/>
<circle class="flicker" cx="583.9" cy="449.1" r="2.76" opacity="0.14" style="--delay:-3.23s;--dur:4.56s"/>
<circle class="flicker" cx="937.7" cy="459.6" r="1.51" opacity="0.27" style="--delay:-3.01s;--dur:4.27s"/>
<circle class="flicker" cx="502.3" cy="334.9" r="2.59" opacity="0.32" style="--delay:-4.22s;--dur:4.09s"/>
<circle class="drift" cx="820.0" cy="435.9" r="0.67" opacity="0.48" style="--delay:-4.41s;--dur:5.11s"/>
<circle class="flicker" cx="789.9" cy="421.2" r="1.31" opacity="0.45" style="--delay:-1.81s;--dur:5.27s"/>
<circle class="particle" cx="776.4" cy="410.4" r="1.57" opacity="0.30" style="--delay:-4.05s;--dur:3.08s"/>
<circle class="flicker" cx="706.0" cy="513.1" r="2.37" opacity="0.13" style="--delay:-0.05s;--dur:4.97s"/>
<circle class="flicker" cx="660.9" cy="488.5" r="2.20" opacity="0.36" style="--delay:-1.39s;--dur:1.59s"/>
<circle class="flicker" cx="916.1" cy="398.2" r="1.48" opacity="0.14" style="--delay:-1.93s;--dur:2.72s"/>
<circle class="flicker" cx="955.8" cy="525.2" r="0.67" opacity="0.41" style="--delay:-3.59s;--dur:3.18s"/>
<circle class="drift" cx="406.4" cy="398.8" r="1.79" opacity="0.31" style="--delay:-3.25s;--dur:4.58s"/>
<circle class="flicker" cx="880.4" cy="402.2" r="0.71" opacity="0.52" style="--delay:-1.73s;--dur:4.30s"/>
<circle class="flicker" cx="35.8" cy="410.8" r="2.03" opacity="0.30" style="--delay:-0.05s;--dur:3.01s"/>
<circle class="flicker" cx="318.1" cy="422.4" r="1.54" opacity="0.55" style="--delay:-2.39s;--dur:1.59s"/>
<circle class="flicker" cx="431.6" cy="251.6" r="2.55" opacity="0.54" style="--delay:-0.13s;--dur:3.56s"/>
<circle class="flicker" cx="783.2" cy="526.2" r="1.46" opacity="0.47" style="--delay:-2.88s;--dur:1.66s"/>
<circle class="particle" cx="711.7" cy="256.1" r="2.70" opacity="0.25" style="--delay:-1.87s;--dur:3.98s"/>
<circle class="drift" cx="390.6" cy="262.7" r="2.65" opacity="0.33" style="--delay:-3.98s;--dur:3.13s"/>
<circle class="flicker" cx="34.5" cy="269.1" r="2.32" opacity="0.28" style="--delay:-1.69s;--dur:4.91s"/>
<circle class="flicker" cx="528.5" cy="342.8" r="1.22" opacity="0.44" style="--delay:-4.29s;--dur:2.98s"/>
<circle class="flicker" cx="52.0" cy="476.4" r="1.60" opacity="0.31" style="--delay:-4.18s;--dur:5.18s"/>
<circle class="flicker" cx="633.2" cy="464.6" r="1.37" opacity="0.25" style="--delay:-3.50s;--dur:5.08s"/>
<circle class="flicker" cx="420.4" cy="306.7" r="2.15" opacity="0.49" style="--delay:-1.20s;--dur:4.51s"/>
<circle class="flicker" cx="865.4" cy="489.8" r="1.52" opacity="0.46" style="--delay:-2.00s;--dur:2.57s"/>
<circle class="drift" cx="381.7" cy="492.4" r="1.25" opacity="0.53" style="--delay:-1.51s;--dur:3.23s"/>
<circle class="flicker" cx="931.6" cy="511.9" r="2.42" opacity="0.40" style="--delay:-3.15s;--dur:2.83s"/>
<circle class="flicker" cx="908.4" cy="392.8" r="2.28" opacity="0.37" style="--delay:-1.82s;--dur:4.21s"/>
<circle class="particle" cx="764.0" cy="363.7" r="2.60" opacity="0.25" style="--delay:-1.26s;--dur:3.09s"/>
<circle class="flicker" cx="278.8" cy="308.3" r="1.95" opacity="0.47" style="--delay:-3.71s;--dur:2.61s"/>
<circle class="flicker" cx="446.2" cy="415.0" r="1.82" opacity="0.28" style="--delay:-3.42s;--dur:4.68s"/>
<circle class="flicker" cx="343.8" cy="359.0" r="1.25" opacity="0.14" style="--delay:-4.09s;--dur:4.44s"/>
<circle class="drift" cx="689.9" cy="314.7" r="2.32" opacity="0.28" style="--delay:-2.73s;--dur:5.00s"/>
<circle class="flicker" cx="409.1" cy="423.8" r="1.38" opacity="0.39" style="--delay:-2.45s;--dur:3.85s"/>
<circle class="flicker" cx="290.7" cy="424.9" r="0.72" opacity="0.44" style="--delay:-1.26s;--dur:3.62s"/>
<circle class="flicker" cx="807.3" cy="352.1" r="1.40" opacity="0.18" style="--delay:-3.49s;--dur:2.61s"/>
<circle class="flicker" cx="747.1" cy="480.8" r="1.94" opacity="0.25" style="--delay:-1.52s;--dur:4.49s"/>
<circle class="flicker" cx="888.4" cy="398.7" r="2.16" opacity="0.32" style="--delay:-0.14s;--dur:2.83s"/>
<circle class="flicker" cx="601.1" cy="439.7" r="0.88" opacity="0.16" style="--delay:-1.56s;--dur:1.67s"/>
<circle class="particle" cx="541.9" cy="344.9" r="1.23" opacity="0.32" style="--delay:-2.69s;--dur:2.87s"/>
<circle class="flicker" cx="290.2" cy="488.0" r="1.56" opacity="0.23" style="--delay:-3.15s;--dur:3.82s"/>
<circle class="flicker" cx="761.0" cy="425.5" r="0.80" opacity="0.44" style="--delay:-0.48s;--dur:4.21s"/>
<circle class="flicker" cx="345.8" cy="500.7" r="1.56" opacity="0.34" style="--delay:-1.22s;--dur:1.95s"/>
<circle class="flicker" cx="55.1" cy="494.0" r="1.16" opacity="0.41" style="--delay:-1.90s;--dur:2.58s"/>
<circle class="flicker" cx="355.1" cy="329.0" r="2.16" opacity="0.54" style="--delay:-0.32s;--dur:3.15s"/>
<circle class="flicker" cx="593.0" cy="357.0" r="1.66" opacity="0.50" style="--delay:-1.90s;--dur:1.82s"/>
<circle class="drift" cx="690.4" cy="286.2" r="2.04" opacity="0.13" style="--delay:-1.06s;--dur:3.15s"/>
<circle class="flicker" cx="126.0" cy="453.8" r="2.67" opacity="0.27" style="--delay:-3.17s;--dur:2.44s"/>
<circle class="flicker" cx="282.4" cy="408.4" r="2.44" opacity="0.27" style="--delay:-2.12s;--dur:4.23s"/>
<circle class="flicker" cx="425.4" cy="497.9" r="0.66" opacity="0.43" style="--delay:-2.91s;--dur:3.34s"/>
<circle class="particle" cx="92.4" cy="517.5" r="1.35" opacity="0.43" style="--delay:-4.22s;--dur:4.01s"/>
<circle class="flicker" cx="426.1" cy="417.2" r="1.35" opacity="0.42" style="--delay:-3.75s;--dur:5.12s"/>
<circle class="flicker" cx="248.6" cy="476.9" r="2.09" opacity="0.15" style="--delay:-0.03s;--dur:4.72s"/>
<circle class="drift" cx="694.4" cy="341.1" r="2.11" opacity="0.44" style="--delay:-1.46s;--dur:1.57s"/>
<circle class="flicker" cx="472.4" cy="370.1" r="2.06" opacity="0.37" style="--delay:-1.46s;--dur:2.79s"/>
<circle class="flicker" cx="639.3" cy="257.1" r="0.76" opacity="0.21" style="--delay:-3.02s;--dur:2.78s"/>
<circle class="flicker" cx="916.4" cy="461.1" r="2.17" opacity="0.55" style="--delay:-3.06s;--dur:4.10s"/>
<circle class="flicker" cx="816.6" cy="339.4" r="1.84" opacity="0.36" style="--delay:-2.96s;--dur:4.13s"/>
<circle class="flicker" cx="31.2" cy="442.9" r="1.03" opacity="0.24" style="--delay:-0.24s;--dur:4.05s"/>
<circle class="flicker" cx="334.3" cy="240.0" r="2.70" opacity="0.46" style="--delay:-3.17s;--dur:1.75s"/>
<circle class="drift" cx="333.6" cy="364.7" r="1.76" opacity="0.47" style="--delay:-2.49s;--dur:4.23s"/>
<circle class="particle" cx="663.3" cy="343.8" r="1.17" opacity="0.29" style="--delay:-0.80s;--dur:3.65s"/>
<circle class="flicker" cx="670.8" cy="230.7" r="2.24" opacity="0.44" style="--delay:-4.28s;--dur:2.22s"/>
<circle class="flicker" cx="649.0" cy="279.9" r="2.31" opacity="0.42" style="--delay:-2.32s;--dur:5.17s"/>
<circle class="flicker" cx="74.7" cy="315.9" r="1.45" opacity="0.40" style="--delay:-1.09s;--dur:3.51s"/>
<circle class="flicker" cx="694.9" cy="484.5" r="2.15" opacity="0.55" style="--delay:-3.33s;--dur:2.47s"/>
<circle class="flicker" cx="551.2" cy="381.5" r="2.05" opacity="0.51" style="--delay:-3.48s;--dur:4.36s"/>
<circle class="drift" cx="193.2" cy="422.4" r="1.97" opacity="0.38" style="--delay:-1.67s;--dur:4.49s"/>
<circle class="flicker" cx="928.8" cy="343.1" r="2.68" opacity="0.56" style="--delay:-3.13s;--dur:2.96s"/>
<circle class="flicker" cx="515.6" cy="231.1" r="2.51" opacity="0.38" style="--delay:-2.92s;--dur:4.20s"/>
<circle class="flicker" cx="254.4" cy="368.2" r="1.89" opacity="0.39" style="--delay:-2.76s;--dur:4.02s"/>
<circle class="flicker" cx="727.1" cy="477.5" r="2.77" opacity="0.40" style="--delay:-4.26s;--dur:3.88s"/>
<circle class="particle" cx="759.4" cy="328.3" r="1.89" opacity="0.42" style="--delay:-3.90s;--dur:5.14s"/>
<circle class="flicker" cx="377.2" cy="485.5" r="1.91" opacity="0.17" style="--delay:-2.59s;--dur:4.84s"/>
<circle class="drift" cx="686.7" cy="258.9" r="1.97" opacity="0.56" style="--delay:-4.43s;--dur:3.73s"/>
<circle class="flicker" cx="641.6" cy="330.3" r="2.05" opacity="0.18" style="--delay:-2.59s;--dur:5.29s"/>
<circle class="flicker" cx="608.5" cy="250.9" r="0.87" opacity="0.19" style="--delay:-2.64s;--dur:3.74s"/>
<circle class="flicker" cx="923.3" cy="240.3" r="2.77" opacity="0.20" style="--delay:-2.77s;--dur:3.78s"/>
<circle class="flicker" cx="847.9" cy="221.4" r="0.90" opacity="0.30" style="--delay:-2.94s;--dur:3.89s"/>
<circle class="flicker" cx="571.2" cy="304.3" r="0.95" opacity="0.49" style="--delay:-0.46s;--dur:4.03s"/>
<circle class="flicker" cx="960.3" cy="491.4" r="0.99" opacity="0.48" style="--delay:-4.44s;--dur:1.94s"/>
<circle class="drift" cx="572.8" cy="326.8" r="1.50" opacity="0.25" style="--delay:-0.52s;--dur:5.30s"/>
<circle class="flicker" cx="583.4" cy="328.2" r="2.43" opacity="0.51" style="--delay:-0.62s;--dur:1.99s"/>
<circle class="particle" cx="609.7" cy="327.7" r="2.35" opacity="0.52" style="--delay:-0.71s;--dur:2.07s"/>
<circle class="flicker" cx="645.4" cy="242.9" r="1.25" opacity="0.54" style="--delay:-1.78s;--dur:2.15s"/>
<circle class="flicker" cx="121.9" cy="224.3" r="2.52" opacity="0.38" style="--delay:-3.72s;--dur:3.05s"/>
<circle class="flicker" cx="963.2" cy="529.4" r="2.54" opacity="0.33" style="--delay:-3.55s;--dur:4.69s"/>
<circle class="flicker" cx="135.5" cy="253.5" r="2.67" opacity="0.26" style="--delay:-1.26s;--dur:4.55s"/>
<circle class="drift" cx="155.9" cy="238.1" r="1.85" opacity="0.41" style="--delay:-3.92s;--dur:2.61s"/>
<circle class="flicker" cx="175.6" cy="278.3" r="1.65" opacity="0.33" style="--delay:-3.95s;--dur:4.86s"/>
<circle class="flicker" cx="401.2" cy="486.1" r="1.26" opacity="0.26" style="--delay:-4.24s;--dur:4.89s"/>
<circle class="flicker" cx="810.6" cy="398.2" r="2.00" opacity="0.42" style="--delay:-2.51s;--dur:5.13s"/>
<circle class="flicker" cx="774.6" cy="450.4" r="1.61" opacity="0.42" style="--delay:-2.09s;--dur:3.67s"/>
<circle class="flicker" cx="290.8" cy="259.7" r="1.31" opacity="0.32" style="--delay:-1.28s;--dur:3.31s"/>
<circle class="particle" cx="851.9" cy="349.5" r="2.06" opacity="0.50" style="--delay:-2.83s;--dur:2.63s"/>
<circle class="drift" cx="859.6" cy="348.6" r="2.07" opacity="0.38" style="--delay:-2.02s;--dur:3.94s"/>
<circle class="flicker" cx="919.5" cy="281.6" r="1.57" opacity="0.44" style="--delay:-1.38s;--dur:3.25s"/>
<circle class="flicker" cx="554.6" cy="496.7" r="2.46" opacity="0.31" style="--delay:-2.96s;--dur:2.71s"/>
<circle class="flicker" cx="465.5" cy="522.8" r="1.89" opacity="0.51" style="--delay:-2.97s;--dur:4.05s"/>
<circle class="flicker" cx="295.7" cy="413.8" r="2.17" opacity="0.42" style="--delay:-1.92s;--dur:4.06s"/>
<circle class="flicker" cx="622.6" cy="308.7" r="1.52" opacity="0.53" style="--delay:-3.79s;--dur:3.17s"/>
<circle class="flicker" cx="451.0" cy="513.3" r="2.51" opacity="0.52" style="--delay:-2.59s;--dur:4.75s"/>
<circle class="drift" cx="315.3" cy="241.4" r="2.08" opacity="0.28" style="--delay:-3.19s;--dur:3.74s"/>
<circle class="flicker" cx="649.7" cy="299.7" r="2.60" opacity="0.32" style="--delay:-1.81s;--dur:4.24s"/>
<circle class="flicker" cx="652.8" cy="275.7" r="2.55" opacity="0.22" style="--delay:-3.89s;--dur:3.08s"/>
<circle class="particle" cx="429.8" cy="455.7" r="1.41" opacity="0.46" style="--delay:-2.98s;--dur:4.83s"/>
<circle class="flicker" cx="824.2" cy="294.0" r="1.60" opacity="0.40" style="--delay:-4.07s;--dur:4.07s"/>
<circle class="flicker" cx="572.5" cy="416.7" r="1.11" opacity="0.52" style="--delay:-3.98s;--dur:4.99s"/>
<circle class="flicker" cx="698.3" cy="366.4" r="2.27" opacity="0.55" style="--delay:-1.58s;--dur:4.91s"/>
<circle class="drift" cx="407.8" cy="273.6" r="1.96" opacity="0.41" style="--delay:-1.99s;--dur:2.89s"/>
<circle class="flicker" cx="846.2" cy="248.5" r="2.58" opacity="0.49" style="--delay:-0.96s;--dur:3.23s"/>
<circle class="flicker" cx="654.7" cy="398.6" r="2.71" opacity="0.30" style="--delay:-3.39s;--dur:2.36s"/>
<circle class="flicker" cx="885.1" cy="458.0" r="2.02" opacity="0.34" style="--delay:-2.73s;--dur:4.42s"/>
<circle class="flicker" cx="864.7" cy="250.0" r="2.43" opacity="0.18" style="--delay:-4.03s;--dur:3.86s"/>
<circle class="flicker" cx="359.1" cy="497.1" r="1.49" opacity="0.47" style="--delay:-4.32s;--dur:4.96s"/>
<circle class="flicker" cx="444.9" cy="323.1" r="1.69" opacity="0.30" style="--delay:-2.86s;--dur:5.20s"/>
<circle class="particle" cx="227.7" cy="464.8" r="0.91" opacity="0.45" style="--delay:-3.73s;--dur:3.97s"/>
<circle class="flicker" cx="741.4" cy="294.2" r="2.32" opacity="0.16" style="--delay:-1.76s;--dur:4.70s"/>
<circle class="flicker" cx="602.4" cy="284.9" r="1.48" opacity="0.34" style="--delay:-2.18s;--dur:3.03s"/>
<circle class="flicker" cx="876.6" cy="510.2" r="2.20" opacity="0.31" style="--delay:-0.54s;--dur:3.39s"/>
<circle class="flicker" cx="936.7" cy="499.0" r="0.79" opacity="0.15" style="--delay:-3.50s;--dur:2.00s"/>
<circle class="flicker" cx="629.4" cy="467.8" r="1.65" opacity="0.22" style="--delay:-1.73s;--dur:4.51s"/>
<circle class="flicker" cx="812.2" cy="479.2" r="1.51" opacity="0.27" style="--delay:-3.24s;--dur:3.01s"/>
<circle class="drift" cx="396.2" cy="294.8" r="0.72" opacity="0.51" style="--delay:-0.29s;--dur:4.28s"/>
<circle class="flicker" cx="484.8" cy="507.8" r="1.07" opacity="0.36" style="--delay:-2.10s;--dur:1.79s"/>
<circle class="flicker" cx="138.7" cy="250.8" r="1.31" opacity="0.42" style="--delay:-1.80s;--dur:3.32s"/>
<circle class="flicker" cx="763.8" cy="422.8" r="2.48" opacity="0.30" style="--delay:-0.15s;--dur:3.07s"/>
<circle class="particle" cx="391.0" cy="251.2" r="1.77" opacity="0.15" style="--delay:-0.87s;--dur:1.68s"/>
<circle class="flicker" cx="708.1" cy="333.5" r="2.05" opacity="0.34" style="--delay:-1.39s;--dur:2.28s"/>
<circle class="flicker" cx="86.2" cy="269.8" r="1.50" opacity="0.50" style="--delay:-3.84s;--dur:2.73s"/>
<circle class="drift" cx="468.5" cy="525.0" r="0.73" opacity="0.28" style="--delay:-2.34s;--dur:4.79s"/>
<circle class="flicker" cx="404.3" cy="387.9" r="1.68" opacity="0.51" style="--delay:-2.94s;--dur:3.53s"/>
<circle class="flicker" cx="57.7" cy="409.5" r="2.44" opacity="0.19" style="--delay:-1.79s;--dur:4.03s"/>
<circle class="flicker" cx="208.6" cy="311.6" r="1.40" opacity="0.29" style="--delay:-0.16s;--dur:3.06s"/>
<circle class="flicker" cx="318.8" cy="362.5" r="2.49" opacity="0.17" style="--delay:-2.15s;--dur:1.69s"/>
<circle class="flicker" cx="835.5" cy="264.0" r="0.92" opacity="0.16" style="--delay:-3.74s;--dur:3.37s"/>
<circle class="flicker" cx="519.9" cy="374.0" r="1.42" opacity="0.13" style="--delay:-1.57s;--dur:4.71s"/>
<circle class="drift" cx="645.2" cy="304.3" r="0.86" opacity="0.25" style="--delay:-3.85s;--dur:2.88s"/>
<circle class="particle" cx="402.2" cy="469.1" r="0.79" opacity="0.52" style="--delay:-0.57s;--dur:4.80s"/>
<circle class="flicker" cx="59.2" cy="389.3" r="0.66" opacity="0.28" style="--delay:-1.60s;--dur:2.03s"/>
<circle class="flicker" cx="479.0" cy="271.7" r="1.23" opacity="0.28" style="--delay:-0.45s;--dur:2.90s"/>
<circle class="flicker" cx="814.1" cy="483.3" r="2.53" opacity="0.28" style="--delay:-0.29s;--dur:1.93s"/>
<circle class="flicker" cx="356.8" cy="225.1" r="1.39" opacity="0.16" style="--delay:-0.02s;--dur:1.80s"/>
<circle class="flicker" cx="838.5" cy="254.6" r="1.40" opacity="0.14" style="--delay:-1.22s;--dur:1.57s"/>
<circle class="drift" cx="144.4" cy="508.8" r="1.40" opacity="0.57" style="--delay:-3.94s;--dur:2.58s"/>
<circle class="flicker" cx="363.2" cy="406.2" r="0.81" opacity="0.18" style="--delay:-1.55s;--dur:4.88s"/>
<circle class="flicker" cx="119.8" cy="228.4" r="0.68" opacity="0.16" style="--delay:-1.57s;--dur:2.86s"/>
<circle class="flicker" cx="87.1" cy="509.1" r="2.80" opacity="0.21" style="--delay:-1.56s;--dur:2.88s"/>
<circle class="flicker" cx="29.4" cy="311.3" r="0.88" opacity="0.51" style="--delay:-0.33s;--dur:2.87s"/>
<circle class="particle" cx="283.4" cy="279.1" r="0.78" opacity="0.38" style="--delay:-0.06s;--dur:1.83s"/>
<circle class="flicker" cx="856.8" cy="524.9" r="1.05" opacity="0.46" style="--delay:-4.49s;--dur:1.60s"/>
<circle class="drift" cx="352.3" cy="292.7" r="2.50" opacity="0.19" style="--delay:-0.49s;--dur:5.34s"/>
<circle class="flicker" cx="356.5" cy="260.4" r="1.89" opacity="0.31" style="--delay:-0.26s;--dur:1.96s"/>
<circle class="flicker" cx="354.9" cy="228.2" r="2.25" opacity="0.31" style="--delay:-0.85s;--dur:1.77s"/>
<circle class="flicker" cx="95.2" cy="329.3" r="0.93" opacity="0.22" style="--delay:-3.86s;--dur:2.27s"/>
<circle class="flicker" cx="38.0" cy="283.4" r="1.55" opacity="0.52" style="--delay:-2.59s;--dur:4.81s"/>
<circle class="flicker" cx="973.2" cy="454.1" r="1.54" opacity="0.56" style="--delay:-3.34s;--dur:3.73s"/>
<circle class="flicker" cx="127.6" cy="455.6" r="1.08" opacity="0.41" style="--delay:-0.58s;--dur:4.37s"/>
<circle class="drift" cx="80.5" cy="280.5" r="2.57" opacity="0.26" style="--delay:-1.88s;--dur:2.04s"/>
<circle class="flicker" cx="203.8" cy="278.0" r="2.75" opacity="0.55" style="--delay:-1.87s;--dur:3.14s"/>
<circle class="particle" cx="840.6" cy="413.7" r="1.99" opacity="0.16" style="--delay:-0.89s;--dur:3.13s"/>
<circle class="flicker" cx="571.0" cy="268.8" r="1.27" opacity="0.24" style="--delay:-4.02s;--dur:2.30s"/>
<circle class="flicker" cx="731.0" cy="368.6" r="2.68" opacity="0.21" style="--delay:-4.39s;--dur:4.94s"/>
<circle class="flicker" cx="146.8" cy="242.1" r="0.80" opacity="0.46" style="--delay:-2.81s;--dur:5.26s"/>
<circle class="flicker" cx="421.7" cy="360.2" r="1.20" opacity="0.24" style="--delay:-1.29s;--dur:3.93s"/>
<circle class="drift" cx="419.2" cy="339.6" r="1.04" opacity="0.41" style="--delay:-4.26s;--dur:2.64s"/>
<circle class="flicker" cx="213.7" cy="373.2" r="2.28" opacity="0.34" style="--delay:-0.31s;--dur:5.15s"/>
<circle class="flicker" cx="873.1" cy="368.7" r="1.16" opacity="0.21" style="--delay:-1.16s;--dur:1.81s"/>
<circle class="flicker" cx="952.8" cy="464.2" r="2.01" opacity="0.17" style="--delay:-0.81s;--dur:2.53s"/>
<circle class="flicker" cx="619.0" cy="449.8" r="1.67" opacity="0.38" style="--delay:-3.42s;--dur:2.23s"/>
<circle class="flicker" cx="296.9" cy="511.1" r="1.02" opacity="0.47" style="--delay:-1.07s;--dur:4.44s"/>
<circle class="particle" cx="924.0" cy="402.2" r="0.85" opacity="0.17" style="--delay:-2.86s;--dur:2.46s"/>
<circle class="drift" cx="90.7" cy="526.9" r="1.89" opacity="0.52" style="--delay:-2.13s;--dur:3.96s"/>
<circle class="flicker" cx="269.2" cy="438.1" r="2.30" opacity="0.28" style="--delay:-0.78s;--dur:3.34s"/>
<circle class="flicker" cx="195.5" cy="355.4" r="0.86" opacity="0.48" style="--delay:-0.41s;--dur:2.21s"/>
<circle class="flicker" cx="747.4" cy="270.5" r="2.57" opacity="0.24" style="--delay:-2.59s;--dur:1.90s"/>
<circle class="flicker" cx="251.9" cy="427.1" r="1.36" opacity="0.22" style="--delay:-3.45s;--dur:3.74s"/>
<circle class="flicker" cx="627.7" cy="231.4" r="2.35" opacity="0.54" style="--delay:-0.44s;--dur:4.47s"/>
<circle class="flicker" cx="473.7" cy="481.6" r="1.16" opacity="0.53" style="--delay:-4.02s;--dur:1.92s"/>
<circle class="drift" cx="189.4" cy="377.8" r="1.10" opacity="0.48" style="--delay:-1.50s;--dur:4.95s"/>
<circle class="flicker" cx="112.2" cy="383.6" r="2.66" opacity="0.50" style="--delay:-3.55s;--dur:2.81s"/>
<circle class="flicker" cx="572.3" cy="471.5" r="2.58" opacity="0.24" style="--delay:-1.08s;--dur:4.55s"/>
<circle class="particle" cx="754.3" cy="312.2" r="2.37" opacity="0.54" style="--delay:-0.94s;--dur:2.46s"/>
<circle class="flicker" cx="117.0" cy="488.8" r="2.45" opacity="0.17" style="--delay:-4.21s;--dur:2.35s"/>
<circle class="flicker" cx="874.2" cy="343.3" r="1.17" opacity="0.42" style="--delay:-4.05s;--dur:5.11s"/>
<circle class="flicker" cx="340.9" cy="427.5" r="2.65" opacity="0.17" style="--delay:-3.60s;--dur:4.97s"/>
<circle class="drift" cx="775.3" cy="475.8" r="0.86" opacity="0.29" style="--delay:-3.76s;--dur:4.59s"/>
<circle class="flicker" cx="252.3" cy="262.4" r="2.06" opacity="0.20" style="--delay:-1.09s;--dur:4.73s"/>
<circle class="flicker" cx="223.9" cy="526.4" r="0.87" opacity="0.56" style="--delay:-4.18s;--dur:2.47s"/>
<circle class="flicker" cx="914.3" cy="224.7" r="1.44" opacity="0.37" style="--delay:-0.45s;--dur:5.08s"/>
<circle class="flicker" cx="879.9" cy="390.3" r="1.00" opacity="0.40" style="--delay:-2.94s;--dur:1.93s"/>
<circle class="flicker" cx="784.3" cy="302.4" r="2.77" opacity="0.26" style="--delay:-0.45s;--dur:4.04s"/>
<circle class="flicker" cx="819.2" cy="369.5" r="1.81" opacity="0.33" style="--delay:-1.65s;--dur:1.93s"/>
<circle class="particle" cx="254.3" cy="507.0" r="1.96" opacity="0.19" style="--delay:-0.72s;--dur:2.94s"/>
<circle class="flicker" cx="906.8" cy="503.6" r="1.29" opacity="0.35" style="--delay:-4.43s;--dur:2.16s"/>
<circle class="flicker" cx="119.3" cy="274.2" r="1.64" opacity="0.25" style="--delay:-2.44s;--dur:5.29s"/>
<circle class="flicker" cx="646.4" cy="262.0" r="0.96" opacity="0.48" style="--delay:-2.75s;--dur:3.61s"/>
<circle class="flicker" cx="120.6" cy="233.7" r="1.72" opacity="0.37" style="--delay:-1.33s;--dur:3.87s"/>
<circle class="flicker" cx="372.7" cy="304.3" r="1.23" opacity="0.20" style="--delay:-2.07s;--dur:2.67s"/>
<circle class="flicker" cx="177.7" cy="472.7" r="2.38" opacity="0.50" style="--delay:-0.64s;--dur:3.30s"/>
<circle class="drift" cx="959.7" cy="444.8" r="1.82" opacity="0.14" style="--delay:-2.23s;--dur:2.09s"/>
<circle class="flicker" cx="539.4" cy="350.0" r="1.01" opacity="0.18" style="--delay:-1.22s;--dur:3.44s"/>
<circle class="flicker" cx="605.7" cy="405.2" r="2.48" opacity="0.54" style="--delay:-3.62s;--dur:2.58s"/>
<circle class="flicker" cx="305.6" cy="471.2" r="0.69" opacity="0.39" style="--delay:-2.46s;--dur:4.60s"/>
<circle class="particle" cx="461.6" cy="491.5" r="0.89" opacity="0.14" style="--delay:-0.75s;--dur:3.63s"/>
<circle class="flicker" cx="159.9" cy="516.8" r="2.65" opacity="0.54" style="--delay:-3.82s;--dur:2.18s"/>
<circle class="flicker" cx="496.8" cy="502.6" r="1.94" opacity="0.26" style="--delay:-0.07s;--dur:4.78s"/>
<circle class="drift" cx="283.3" cy="384.2" r="0.71" opacity="0.21" style="--delay:-0.50s;--dur:1.61s"/>
<circle class="flicker" cx="788.4" cy="280.7" r="2.65" opacity="0.56" style="--delay:-4.19s;--dur:1.97s"/>
<circle class="flicker" cx="543.9" cy="313.1" r="1.28" opacity="0.23" style="--delay:-2.70s;--dur:5.09s"/>
<circle class="flicker" cx="183.4" cy="226.9" r="1.06" opacity="0.19" style="--delay:-0.12s;--dur:3.83s"/>
<circle class="flicker" cx="831.8" cy="457.7" r="2.76" opacity="0.14" style="--delay:-4.20s;--dur:1.65s"/>
<circle class="flicker" cx="40.7" cy="420.0" r="1.15" opacity="0.29" style="--delay:-1.32s;--dur:5.09s"/>
<circle class="flicker" cx="131.1" cy="295.8" r="0.93" opacity="0.22" style="--delay:-0.86s;--dur:2.67s"/>
<circle class="drift" cx="909.9" cy="500.0" r="0.71" opacity="0.46" style="--delay:-4.43s;--dur:2.27s"/>
<circle class="particle" cx="595.6" cy="328.6" r="1.41" opacity="0.46" style="--delay:-1.06s;--dur:5.29s"/>
<circle class="flicker" cx="50.8" cy="489.4" r="1.09" opacity="0.22" style="--delay:-0.59s;--dur:2.44s"/>
<circle class="flicker" cx="910.8" cy="285.8" r="2.27" opacity="0.21" style="--delay:-0.12s;--dur:2.04s"/>
<circle class="flicker" cx="304.7" cy="488.6" r="2.28" opacity="0.40" style="--delay:-1.59s;--dur:1.65s"/>
<circle class="flicker" cx="206.1" cy="267.4" r="1.07" opacity="0.20" style="--delay:-0.92s;--dur:2.89s"/>
<circle class="flicker" cx="959.4" cy="260.6" r="1.05" opacity="0.34" style="--delay:-3.40s;--dur:2.33s"/>
<circle class="drift" cx="247.9" cy="365.4" r="1.99" opacity="0.16" style="--delay:-3.42s;--dur:4.42s"/>
<circle class="flicker" cx="148.7" cy="336.6" r="0.99" opacity="0.33" style="--delay:-0.88s;--dur:4.44s"/>
<circle class="flicker" cx="50.2" cy="389.8" r="1.68" opacity="0.30" style="--delay:-0.84s;--dur:2.29s"/>
<circle class="flicker" cx="360.0" cy="474.0" r="0.80" opacity="0.35" style="--delay:-2.81s;--dur:2.26s"/>
<circle class="flicker" cx="219.3" cy="239.3" r="1.62" opacity="0.34" style="--delay:-0.71s;--dur:3.92s"/>
<circle class="particle" cx="742.3" cy="422.7" r="1.48" opacity="0.48" style="--delay:-2.16s;--dur:2.15s"/>
<circle class="flicker" cx="747.1" cy="305.4" r="1.71" opacity="0.46" style="--delay:-0.32s;--dur:3.37s"/>
<circle class="drift" cx="210.3" cy="312.3" r="1.68" opacity="0.54" style="--delay:-2.04s;--dur:1.82s"/>
<circle class="flicker" cx="202.6" cy="427.7" r="2.34" opacity="0.39" style="--delay:-1.74s;--dur:3.27s"/>
<circle class="flicker" cx="618.5" cy="393.5" r="2.24" opacity="0.57" style="--delay:-2.22s;--dur:3.02s"/>
<circle class="flicker" cx="174.7" cy="262.0" r="2.67" opacity="0.44" style="--delay:-2.16s;--dur:3.43s"/>
<circle class="flicker" cx="480.3" cy="334.6" r="1.91" opacity="0.32" style="--delay:-3.54s;--dur:3.37s"/>
<circle class="flicker" cx="92.8" cy="290.8" r="2.78" opacity="0.20" style="--delay:-3.34s;--dur:4.54s"/>
<circle class="flicker" cx="454.7" cy="425.1" r="2.16" opacity="0.42" style="--delay:-4.23s;--dur:4.37s"/>
<circle class="drift" cx="391.6" cy="330.2" r="1.59" opacity="0.15" style="--delay:-2.65s;--dur:5.12s"/>
<circle class="flicker" cx="494.4" cy="427.1" r="1.00" opacity="0.50" style="--delay:-4.46s;--dur:3.78s"/>
<circle class="particle" cx="480.7" cy="396.2" r="2.09" opacity="0.35" style="--delay:-3.17s;--dur:5.31s"/>
<circle class="flicker" cx="773.3" cy="358.6" r="0.73" opacity="0.36" style="--delay:-1.96s;--dur:4.22s"/>
<circle class="flicker" cx="729.1" cy="450.5" r="2.46" opacity="0.49" style="--delay:-0.73s;--dur:3.21s"/>
<circle class="flicker" cx="917.0" cy="349.6" r="1.74" opacity="0.26" style="--delay:-3.01s;--dur:2.17s"/>
<circle class="flicker" cx="583.5" cy="277.9" r="1.78" opacity="0.51" style="--delay:-0.17s;--dur:4.09s"/>
<circle class="drift" cx="965.5" cy="415.3" r="2.39" opacity="0.31" style="--delay:-3.80s;--dur:1.69s"/>
<circle class="flicker" cx="693.5" cy="459.3" r="1.29" opacity="0.42" style="--delay:-2.29s;--dur:4.76s"/>
<circle class="flicker" cx="439.8" cy="457.0" r="2.51" opacity="0.49" style="--delay:-2.37s;--dur:3.48s"/>
<circle class="flicker" cx="179.6" cy="300.9" r="1.51" opacity="0.19" style="--delay:-3.65s;--dur:3.56s"/>
<circle class="flicker" cx="659.6" cy="417.1" r="2.09" opacity="0.56" style="--delay:-1.34s;--dur:4.63s"/>
<circle class="flicker" cx="60.0" cy="509.0" r="2.42" opacity="0.14" style="--delay:-3.90s;--dur:2.68s"/>
<circle class="particle" cx="826.8" cy="513.5" r="0.94" opacity="0.37" style="--delay:-1.79s;--dur:4.84s"/>
<circle class="drift" cx="508.6" cy="251.9" r="2.78" opacity="0.25" style="--delay:-3.01s;--dur:3.06s"/>
<circle class="flicker" cx="526.3" cy="498.3" r="0.68" opacity="0.34" style="--delay:-3.71s;--dur:4.09s"/>
<circle class="flicker" cx="795.6" cy="358.9" r="1.83" opacity="0.54" style="--delay:-0.62s;--dur:4.69s"/>
<circle class="flicker" cx="307.5" cy="236.4" r="1.22" opacity="0.53" style="--delay:-4.45s;--dur:2.07s"/>
<circle class="flicker" cx="848.6" cy="374.2" r="1.69" opacity="0.21" style="--delay:-0.07s;--dur:5.31s"/>
<circle class="flicker" cx="403.0" cy="395.0" r="2.64" opacity="0.19" style="--delay:-2.47s;--dur:1.61s"/>
<circle class="flicker" cx="660.9" cy="501.0" r="2.62" opacity="0.15" style="--delay:-1.20s;--dur:3.64s"/>
<circle class="drift" cx="808.9" cy="491.6" r="1.03" opacity="0.25" style="--delay:-2.17s;--dur:2.56s"/>
<circle class="flicker" cx="155.0" cy="409.9" r="0.94" opacity="0.49" style="--delay:-4.17s;--dur:3.38s"/>
<circle class="flicker" cx="964.0" cy="257.0" r="0.74" opacity="0.45" style="--delay:-4.12s;--dur:5.07s"/>
<circle class="particle" cx="39.5" cy="505.8" r="1.23" opacity="0.31" style="--delay:-0.79s;--dur:5.03s"/>
<circle class="flicker" cx="546.8" cy="260.2" r="2.40" opacity="0.39" style="--delay:-0.61s;--dur:2.21s"/>
<circle class="flicker" cx="277.5" cy="491.2" r="2.21" opacity="0.49" style="--delay:-0.20s;--dur:2.06s"/>
<circle class="flicker" cx="483.1" cy="381.6" r="1.55" opacity="0.52" style="--delay:-1.22s;--dur:1.72s"/>
<circle class="drift" cx="904.4" cy="366.7" r="1.93" opacity="0.55" style="--delay:-3.67s;--dur:2.58s"/>
<circle class="flicker" cx="894.1" cy="299.3" r="2.39" opacity="0.53" style="--delay:-3.26s;--dur:4.65s"/>
<circle class="flicker" cx="191.0" cy="356.1" r="2.53" opacity="0.36" style="--delay:-1.89s;--dur:4.31s"/>
<circle class="flicker" cx="153.7" cy="233.6" r="2.71" opacity="0.22" style="--delay:-2.69s;--dur:3.14s"/>
<circle class="flicker" cx="66.9" cy="271.3" r="2.61" opacity="0.26" style="--delay:-3.65s;--dur:3.82s"/>
<circle class="flicker" cx="283.3" cy="337.9" r="1.79" opacity="0.14" style="--delay:-3.94s;--dur:4.63s"/>
<circle class="flicker" cx="799.4" cy="257.0" r="1.07" opacity="0.47" style="--delay:-4.31s;--dur:4.88s"/>
<circle class="particle" cx="713.8" cy="419.7" r="1.30" opacity="0.41" style="--delay:-4.10s;--dur:5.19s"/>
<circle class="flicker" cx="423.4" cy="312.1" r="0.70" opacity="0.24" style="--delay:-2.38s;--dur:5.01s"/>
<circle class="flicker" cx="592.6" cy="282.0" r="2.30" opacity="0.53" style="--delay:-0.88s;--dur:3.56s"/>
<circle class="flicker" cx="794.7" cy="415.5" r="2.04" opacity="0.28" style="--delay:-1.35s;--dur:2.29s"/>
<circle class="flicker" cx="857.1" cy="387.2" r="1.18" opacity="0.51" style="--delay:-0.10s;--dur:2.69s"/>
<circle class="flicker" cx="934.6" cy="520.3" r="2.59" opacity="0.22" style="--delay:-3.45s;--dur:1.63s"/>
<circle class="flicker" cx="890.9" cy="329.5" r="1.40" opacity="0.51" style="--delay:-2.90s;--dur:4.46s"/>
<circle class="drift" cx="528.1" cy="392.8" r="2.52" opacity="0.20" style="--delay:-1.10s;--dur:4.00s"/>
</g>
<g class="hud" font-size="10" letter-spacing="2">
<text x="40" y="42" opacity=".7">13 / 20</text>
<path d="M58 52v9" stroke="#f3f3ef" stroke-opacity=".4"/>
<path d="M138 52v4" stroke="#f3f3ef" stroke-opacity=".18"/>
<path d="M218 52v4" stroke="#f3f3ef" stroke-opacity=".18"/>
<path d="M298 52v9" stroke="#f3f3ef" stroke-opacity=".4"/>
<path d="M378 52v4" stroke="#f3f3ef" stroke-opacity=".18"/>
<path d="M458 52v4" stroke="#f3f3ef" stroke-opacity=".18"/>
<path d="M538 52v9" stroke="#f3f3ef" stroke-opacity=".4"/>
<path d="M618 52v4" stroke="#f3f3ef" stroke-opacity=".18"/>
<path d="M698 52v4" stroke="#f3f3ef" stroke-opacity=".18"/>
<path d="M778 52v9" stroke="#f3f3ef" stroke-opacity=".4"/>
<path d="M858 52v4" stroke="#f3f3ef" stroke-opacity=".18"/>
<path d="M938 52v4" stroke="#f3f3ef" stroke-opacity=".18"/>
<circle cx="865" cy="42" r="2" fill="#f3f3ef" opacity="0.18" class="particle" style="--delay:0s"/>
<circle cx="877" cy="42" r="1.1" fill="#f3f3ef" opacity="0.25" class="flicker" style="--delay:-0.4s"/>
<circle cx="889" cy="42" r="1.1" fill="#f3f3ef" opacity="0.32" class="flicker" style="--delay:-0.8s"/>
<circle cx="901" cy="42" r="2" fill="#f3f3ef" opacity="0.39" class="particle" style="--delay:-1.2000000000000002s"/>
<circle cx="913" cy="42" r="1.1" fill="#f3f3ef" opacity="0.46" class="flicker" style="--delay:-1.6s"/>
<circle cx="925" cy="42" r="1.1" fill="#f3f3ef" opacity="0.53" class="flicker" style="--delay:-2s"/>
<circle cx="937" cy="42" r="2" fill="#f3f3ef" opacity="0.60" class="particle" style="--delay:-2.4000000000000004s"/>
<circle cx="949" cy="42" r="1.1" fill="#f3f3ef" opacity="0.67" class="flicker" style="--delay:-2.8000000000000003s"/>
<text x="40" y="520" font-size="14" letter-spacing="3">GRID DEPTH</text>
<text x="40" y="536" font-size="8" opacity=".46" letter-spacing="2">TAMASRAZIM / VECTOR MOTION STUDY</text>
<path d="M700 518H960" class="dash"/>
<circle cx="968" cy="518" r="3" fill="#f3f3ef" class="particle"/>
</g>
</g>
</svg>
